<?xml version="1.0" standalone="no"?>
<!DOCTYPE svg PUBLIC "-//W3C//DTD SVG 20010904//EN"
 "http://www.w3.org/TR/2001/REC-SVG-20010904/DTD/svg10.dtd">
<svg version="1.0" xmlns="http://www.w3.org/2000/svg"
 width="2000.000000pt" height="2000.000000pt" viewBox="0 0 2000.000000 2000.000000"
 preserveAspectRatio="xMidYMid meet">
<metadata>
Created by potrace 1.14, written by Peter Selinger 2001-2017
</metadata>
<g transform="translate(0.000000,2000.000000) scale(0.100000,-0.100000)"
fill="#000000" stroke="none">
<path d="M5122 19044 c-24 -8 -87 -40 -140 -71 -401 -232 -587 -329 -747 -387
-126 -46 -127 -46 -142 -85 -13 -30 -12 -34 17 -63 31 -31 31 -31 118 -25 95
6 133 19 377 127 164 73 237 101 243 95 3 -2 -22 -41 -54 -86 -223 -312 -722
-627 -1239 -784 -297 -91 -565 -123 -755 -91 -201 33 -474 123 -664 218 -240
121 -450 288 -601 479 -71 89 -175 199 -190 199 -6 0 -20 -7 -32 -15 -20 -14
-20 -17 -7 -87 14 -74 28 -101 142 -278 156 -240 505 -495 864 -629 337 -126
633 -163 898 -113 715 136 1249 412 1697 876 130 135 160 170 211 255 l20 35
17 -40 c9 -21 34 -107 55 -190 50 -200 79 -253 162 -295 l40 -20 25 23 c25 23
25 25 19 133 -12 232 -36 367 -97 555 -80 250 -127 302 -237 264z"/>
<path d="M11674 18880 c-32 -17 -113 -73 -179 -126 -243 -196 -460 -336 -677
-438 -105 -49 -115 -56 -132 -95 -11 -23 -17 -44 -13 -47 10 -10 162 -6 212 7
75 19 179 64 285 123 120 68 146 81 210 106 l51 20 -28 -47 c-115 -199 -664
-1107 -746 -1235 -104 -162 -191 -273 -260 -330 l-39 -31 -43 21 c-104 51
-160 133 -250 367 -137 355 -170 436 -226 548 -131 263 -226 361 -349 361 -85
0 -139 -30 -245 -137 -203 -203 -457 -666 -599 -1092 -86 -256 -110 -358 -110
-472 -1 -93 1 -104 21 -124 20 -21 25 -21 63 -10 22 6 47 22 54 34 8 12 38 91
65 175 104 313 245 628 403 898 156 268 242 380 327 424 21 11 26 10 38 -6 38
-50 158 -318 213 -474 202 -566 427 -825 678 -779 108 21 208 94 338 251 127
152 176 232 650 1060 229 400 314 542 320 536 1 -2 28 -102 59 -223 58 -231
93 -321 141 -369 28 -27 94 -66 113 -66 5 0 12 30 15 68 6 55 -2 120 -43 362
-27 162 -57 354 -66 425 -29 235 -48 295 -105 328 -41 24 -79 21 -146 -13z"/>
<path d="M18299 18856 c-121 -35 -719 -316 -752 -354 -22 -24 -15 -62 11 -62
9 0 175 40 367 89 193 49 351 88 351 88 5 -6 -347 -452 -394 -500 -115 -118
-257 -199 -414 -237 -155 -37 -270 -18 -377 62 -88 66 -348 285 -455 383 -322
294 -443 373 -602 390 -193 22 -427 -118 -599 -359 -61 -86 -100 -168 -131
-276 -45 -156 -25 -244 62 -269 l31 -9 27 97 c70 251 197 416 402 522 67 35
83 39 149 39 112 0 167 -33 385 -230 130 -118 350 -307 495 -424 192 -155 314
-203 500 -193 210 11 447 110 630 264 92 77 182 183 291 341 49 72 92 129 95
127 3 -2 11 -30 18 -62 22 -98 50 -160 87 -192 62 -55 100 -51 151 16 27 35
28 41 25 127 -7 207 -50 438 -99 528 -50 92 -142 126 -254 94z"/>
<path d="M6811 18672 c-11 -21 37 -108 190 -342 261 -398 402 -730 483 -1140
56 -283 72 -639 40 -915 -65 -561 -286 -1085 -646 -1537 -107 -134 -346 -374
-360 -360 -15 15 -6 99 27 251 27 132 28 135 10 168 -21 39 -27 40 -79 10 -47
-26 -46 -23 -181 -420 -57 -168 -95 -294 -95 -318 0 -78 49 -129 124 -129 90
0 697 178 768 225 54 36 111 155 75 155 -8 0 -114 -22 -236 -50 -123 -27 -227
-47 -232 -44 -17 10 -9 29 35 74 72 75 363 428 436 530 312 436 515 999 557
1545 12 157 7 446 -11 600 -73 621 -334 1206 -717 1610 -52 54 -82 78 -116 89
-58 20 -60 20 -72 -2z"/>
<path d="M14656 17493 c-80 -14 -139 -41 -150 -69 -3 -9 -6 -36 -6 -61 0 -39
3 -44 18 -40 204 68 339 82 489 54 347 -66 644 -354 766 -743 28 -89 52 -218
43 -233 -4 -5 -37 -26 -74 -47 -268 -149 -491 -360 -554 -526 -35 -93 -18
-198 41 -246 57 -46 151 -57 242 -27 253 82 431 293 510 604 27 108 24 105
173 143 109 29 321 31 415 5 149 -41 284 -138 355 -256 35 -57 86 -193 86
-229 0 -12 -34 -48 -89 -96 -128 -109 -313 -350 -378 -492 -49 -107 -25 -224
59 -284 52 -38 102 -45 179 -26 83 22 148 59 222 127 119 108 173 238 212 503
26 179 21 170 120 216 152 70 323 101 530 95 227 -6 387 -47 550 -141 336
-194 523 -523 543 -958 8 -180 -3 -283 -52 -470 -102 -387 -288 -760 -532
-1066 -93 -117 -337 -358 -464 -459 -153 -122 -381 -271 -413 -271 l-27 0 24
53 c13 28 86 187 162 352 153 333 163 371 123 435 l-21 34 -39 -44 c-21 -25
-58 -79 -83 -120 -83 -141 -489 -865 -509 -909 -23 -52 -19 -121 9 -152 10
-11 34 -27 54 -36 92 -39 718 -41 867 -2 171 45 231 83 254 160 7 21 9 42 6
45 -4 4 -82 2 -174 -5 -292 -20 -455 -24 -522 -12 -35 6 -65 12 -68 14 -12 13
19 38 109 87 128 69 305 185 428 280 123 96 345 317 448 448 317 399 552 925
601 1342 14 124 13 376 -3 480 -78 504 -397 884 -868 1034 -318 101 -584 97
-932 -14 -68 -22 -128 -40 -133 -40 -5 0 -24 28 -43 63 -57 107 -122 199 -195
276 -199 211 -433 272 -838 217 -60 -8 -115 -12 -122 -10 -14 6 -16 10 -71
159 -84 231 -204 424 -358 581 -213 215 -413 297 -716 293 -69 -1 -161 -8
-204 -16z m1134 -1345 c0 -13 -6 -45 -14 -73 -34 -129 -119 -231 -240 -290
-69 -34 -185 -70 -194 -60 -13 12 90 159 162 231 70 69 256 213 279 214 4 0 7
-10 7 -22z m1218 -688 c-9 -156 -77 -259 -212 -320 -33 -16 -72 -31 -85 -35
-22 -7 -23 -5 -16 27 11 56 81 190 131 248 44 51 171 170 182 170 3 0 2 -41 0
-90z"/>
<path d="M2164 16804 c-64 -23 -811 -636 -851 -698 l-22 -34 31 -6 c86 -17
155 6 271 88 66 47 153 93 161 85 3 -3 -20 -83 -50 -179 -80 -256 -100 -389
-83 -535 33 -269 175 -495 454 -718 61 -48 99 -86 98 -96 -1 -9 -5 -86 -9
-171 -12 -269 36 -511 151 -770 105 -236 266 -410 482 -518 222 -112 525 -107
767 14 121 61 242 168 285 252 20 40 43 122 34 122 -3 0 -32 -27 -66 -59 -34
-33 -102 -84 -150 -115 -266 -167 -555 -192 -787 -70 -155 81 -296 238 -395
439 -101 206 -133 342 -142 613 -3 110 -2 182 3 182 6 0 63 -7 128 -15 132
-18 224 -11 319 25 153 57 276 196 332 373 29 91 31 143 9 217 -21 71 -107
159 -178 183 -149 51 -351 -12 -504 -157 -73 -69 -156 -184 -206 -283 -15 -29
-30 -53 -35 -53 -18 0 -129 90 -192 156 -109 115 -178 233 -226 391 -24 80
-27 103 -27 253 -1 171 7 218 54 348 39 105 113 228 203 337 l25 30 -5 -141
c-8 -184 -3 -207 48 -241 23 -15 43 -22 48 -17 13 15 153 655 153 698 -1 68
-53 97 -128 70z m755 -1539 c43 -22 66 -78 66 -160 0 -60 -5 -81 -33 -137 -40
-82 -111 -148 -190 -179 -81 -32 -211 -31 -307 2 -85 29 -85 31 -19 167 34 71
61 110 112 161 126 127 286 191 371 146z"/>
<path d="M13107 16720 c-21 -6 -52 -17 -69 -26 l-32 -16 115 -35 c293 -89 475
-190 734 -408 229 -193 419 -414 542 -628 183 -322 323 -807 323 -1124 0 -116
-17 -263 -30 -263 -20 0 -88 93 -114 155 -40 96 -78 149 -121 169 -53 25 -69
9 -62 -64 12 -130 91 -300 201 -431 105 -125 156 -145 222 -87 57 50 450 562
488 636 19 37 22 112 4 112 -7 0 -89 -78 -183 -174 -93 -95 -180 -178 -192
-185 -25 -13 -23 -23 -53 244 -23 203 -44 310 -95 489 -126 440 -344 809 -656
1111 -181 175 -389 324 -574 410 -220 103 -356 138 -448 115z"/>
<path d="M4424 16519 c-23 -25 -29 -158 -38 -894 -4 -264 -11 -484 -16 -489
-15 -15 -27 2 -95 132 -112 213 -123 225 -194 234 -20 3 -26 -4 -38 -39 l-14
-42 72 -173 c101 -244 209 -467 248 -510 62 -71 140 -71 202 -1 64 74 389 777
389 843 0 44 -42 84 -77 75 -64 -16 -107 -64 -188 -210 -51 -93 -53 -95 -63
-68 -17 44 -21 78 -26 228 -3 77 -8 205 -11 285 -11 284 -26 555 -32 575 -20
70 -80 97 -119 54z"/>
<path d="M11940 15838 c-3 -3 -49 -8 -102 -12 -296 -19 -740 -140 -1035 -281
-243 -116 -432 -245 -607 -414 -312 -302 -505 -641 -587 -1031 -28 -136 -35
-436 -14 -583 27 -186 89 -392 167 -557 44 -93 89 -202 85 -206 -1 -1 -83 13
-182 32 -99 18 -190 33 -202 34 -33 0 -42 -44 -16 -77 16 -22 56 -37 243 -93
124 -37 297 -86 384 -110 250 -68 241 -84 255 424 6 204 9 371 7 373 -7 8 -69
-52 -93 -90 -38 -60 -61 -136 -78 -259 -8 -60 -20 -130 -26 -154 -14 -54 -21
-50 -88 51 -239 356 -321 795 -230 1229 27 129 58 214 130 359 125 251 285
454 499 632 250 208 636 395 985 478 266 64 436 83 720 81 735 -6 1383 -281
1758 -747 41 -52 88 -99 114 -114 24 -14 46 -24 48 -22 9 10 -59 133 -116 209
-171 227 -401 426 -616 535 -262 132 -618 241 -933 285 -129 19 -460 38 -470
28z"/>
<path d="M11875 15100 c-39 -16 -774 -683 -776 -703 -5 -59 -3 -79 11 -92 15
-13 40 2 236 139 157 110 221 151 226 141 4 -7 -10 -82 -31 -167 -85 -337
-103 -462 -103 -708 0 -199 17 -352 63 -538 82 -336 183 -537 351 -697 136
-130 247 -194 469 -269 258 -86 484 -122 709 -113 309 13 611 93 820 217 101
61 103 62 94 84 -8 22 -12 21 -174 -37 -379 -136 -735 -169 -1045 -98 -87 21
-257 73 -335 103 -377 148 -535 341 -640 783 -52 215 -63 326 -57 555 3 113 8
216 11 230 3 14 12 68 21 120 32 187 124 503 174 596 l18 34 53 -61 c151 -174
225 -228 308 -229 l42 0 -51 103 c-28 56 -89 170 -134 252 -46 83 -93 182
-105 220 -16 49 -34 81 -60 108 -38 37 -58 43 -95 27z"/>
<path d="M17554 14736 c-48 -21 -894 -583 -932 -619 -59 -56 -75 -83 -61 -108
10 -19 16 -21 67 -15 73 9 141 40 276 128 100 65 242 136 252 125 3 -2 -163
-231 -367 -508 -555 -751 -687 -928 -743 -994 -122 -144 -226 -252 -291 -301
l-70 -53 -28 27 c-60 56 -77 120 -92 332 -3 52 -8 115 -10 140 -2 25 -7 83
-10 130 -15 200 -39 273 -104 317 -81 54 -172 18 -325 -128 -346 -330 -829
-1009 -1178 -1654 -91 -168 -117 -240 -96 -261 12 -13 20 -10 60 21 51 40 133
153 348 475 252 378 455 652 679 920 106 127 381 413 389 405 5 -5 7 -26 16
-211 10 -191 70 -473 122 -578 49 -98 117 -145 210 -146 108 0 219 63 358 204
208 214 275 301 1039 1372 232 326 425 589 428 585 4 -3 9 -83 11 -176 5 -186
10 -206 69 -253 l28 -23 42 38 c22 20 45 47 49 59 12 29 40 380 43 519 2 86
-2 120 -16 157 -31 81 -88 106 -163 74z"/>
<path d="M7740 13698 c-51 -35 -62 -78 -50 -191 14 -124 17 -150 42 -310 l21
-138 40 -34 c22 -19 44 -35 48 -35 4 0 22 17 41 38 37 41 51 90 64 230 4 39
10 72 14 72 16 0 155 -137 202 -200 190 -250 328 -762 329 -1220 0 -323 -107
-596 -337 -862 -199 -231 -470 -368 -761 -385 -551 -32 -1004 354 -1082 922
-33 245 41 521 197 731 187 253 368 339 604 289 148 -31 283 -124 329 -228 20
-43 24 -69 24 -147 0 -87 -3 -100 -30 -150 -42 -76 -108 -123 -223 -156 -10
-3 -9 -11 5 -35 46 -80 100 -88 191 -30 112 73 176 158 207 276 67 261 -97
524 -393 629 -402 143 -839 -111 -1032 -598 -43 -109 -88 -299 -100 -426 -24
-238 36 -503 160 -710 255 -424 712 -634 1230 -565 382 51 690 221 904 500
113 147 173 258 235 437 116 337 134 722 51 1101 -47 216 -165 523 -275 719
-30 53 -55 98 -55 101 0 2 29 6 64 9 87 5 146 43 146 92 0 48 -48 110 -102
130 -85 31 -564 157 -618 163 -47 4 -60 1 -90 -19z"/>
<path d="M1460 13051 c-359 -126 -382 -135 -403 -163 -25 -33 -17 -71 19 -95
23 -15 36 -15 135 -4 61 7 146 21 190 32 44 10 86 19 94 19 9 0 -6 -43 -47
-132 -300 -657 -447 -1113 -503 -1558 -58 -460 -7 -1101 126 -1585 232 -845
733 -1729 1132 -1996 33 -21 63 -39 68 -39 17 0 -80 149 -188 292 -182 237
-254 345 -390 583 -281 491 -470 1005 -557 1515 -22 127 -30 195 -52 415 -9
92 -5 498 6 625 33 385 112 759 225 1075 54 151 197 446 286 589 l62 99 64
-189 c35 -104 75 -226 89 -272 31 -106 62 -154 117 -186 24 -15 46 -26 49 -26
3 0 8 39 12 86 6 77 3 103 -30 243 -51 223 -162 661 -176 694 -13 35 -45 57
-78 56 -14 0 -126 -35 -250 -78z"/>
<path d="M3615 12485 c-517 -84 -955 -341 -1284 -754 -219 -275 -340 -524
-359 -735 -9 -94 -6 -106 29 -106 13 0 22 21 38 83 29 108 35 124 97 247 176
347 445 640 774 843 113 69 331 171 463 216 152 52 323 69 523 52 238 -20 401
-64 599 -162 313 -155 575 -421 767 -779 80 -150 174 -375 160 -384 -4 -2 -52
36 -107 85 -98 88 -99 89 -151 89 l-52 0 -4 -37 c-7 -53 0 -67 93 -184 185
-233 281 -308 377 -295 92 13 140 66 161 181 30 156 57 542 40 559 -2 2 -13 6
-23 8 -16 2 -30 -21 -84 -140 l-65 -143 -101 198 c-151 294 -258 447 -455 644
-174 173 -307 272 -499 368 -102 51 -259 106 -380 132 -129 28 -426 35 -557
14z"/>
<path d="M9975 12022 c-69 -23 -136 -91 -163 -164 -42 -113 -65 -254 -66 -403
-1 -123 3 -160 34 -307 23 -114 31 -171 24 -178 -6 -6 -37 -20 -70 -32 -51
-19 -79 -22 -199 -22 -243 1 -388 56 -537 205 -69 69 -87 83 -91 69 -6 -25 9
-103 27 -137 18 -35 87 -101 149 -142 217 -146 470 -180 736 -100 100 30 131
26 230 -31 115 -65 244 -114 372 -140 88 -19 125 -21 244 -17 309 13 512 98
927 388 69 49 130 89 135 89 4 0 33 -32 62 -71 63 -82 61 -83 92 48 17 68 22
122 23 241 l1 154 -29 25 c-42 36 -70 29 -291 -70 -350 -157 -360 -163 -319
-208 34 -38 81 -43 178 -20 48 12 101 21 118 21 27 0 29 -2 17 -16 -28 -33
-257 -178 -373 -234 -153 -75 -275 -115 -418 -136 -204 -30 -402 -1 -558 82
-114 60 -110 49 -42 151 127 189 182 358 182 561 0 215 -69 351 -200 397 -55
19 -132 18 -195 -3z m168 -184 c40 -20 59 -92 59 -217 -1 -182 -50 -331 -154
-470 l-41 -54 -14 34 c-25 58 -61 211 -68 289 -11 123 19 308 61 380 32 53 97
69 157 38z"/>
<path d="M18024 11366 c-60 -19 -111 -57 -289 -219 -211 -192 -348 -332 -489
-502 -92 -111 -120 -151 -132 -193 -9 -29 -13 -60 -10 -68 7 -17 78 -19 109
-2 12 6 72 61 132 122 61 62 148 144 195 183 138 114 282 224 287 219 9 -9
-59 -133 -226 -411 -237 -394 -344 -623 -472 -1008 -75 -225 -93 -324 -87
-482 12 -299 117 -491 296 -541 56 -16 75 -16 156 -6 276 35 560 153 802 335
110 82 290 253 379 360 45 54 47 59 35 82 -7 14 -18 25 -24 25 -17 0 -139 -84
-256 -176 -344 -270 -681 -423 -940 -427 -127 -2 -172 34 -207 164 -23 87 -23
303 1 414 63 289 212 623 519 1161 84 148 191 338 236 422 l83 153 25 -23 c14
-13 43 -60 64 -106 61 -128 100 -164 200 -186 23 -5 27 -2 37 33 18 59 16 69
-47 233 -101 264 -163 380 -228 421 -49 32 -97 39 -149 23z"/>
<path d="M15160 11316 c-180 -49 -302 -178 -469 -496 -129 -247 -212 -469
-290 -770 -123 -473 -168 -861 -164 -1420 1 -230 5 -288 20 -355 l19 -80 35 0
34 0 6 65 c4 36 9 94 12 130 8 83 51 480 77 715 84 739 169 1082 362 1469 128
257 334 508 440 536 203 55 425 -315 517 -865 21 -127 55 -458 49 -477 -7 -20
-54 53 -87 133 -17 42 -44 88 -60 103 -34 32 -87 40 -104 15 -26 -40 71 -386
158 -563 60 -124 161 -274 199 -297 17 -11 45 -19 62 -19 42 0 87 51 108 122
92 316 236 887 236 935 0 39 -32 102 -56 110 -5 2 -54 -85 -107 -194 l-96
-197 -20 44 c-10 25 -29 110 -41 190 -61 412 -161 719 -306 937 -84 126 -188
205 -305 232 -59 14 -174 12 -229 -3z"/>
<path d="M12644 11201 c-39 -24 -660 -721 -712 -799 -14 -21 -52 -125 -52
-142 0 -5 7 -11 15 -14 11 -4 96 76 282 264 146 149 268 270 272 270 3 0 12
-4 19 -9 12 -7 12 -30 3 -132 -15 -167 -20 -425 -11 -584 26 -439 129 -876
295 -1247 65 -146 97 -199 200 -336 104 -137 138 -165 213 -170 31 -2 70 1 86
8 l30 11 -55 47 c-72 62 -102 95 -156 167 -147 196 -315 680 -388 1119 -39
237 -49 362 -49 631 0 236 2 258 28 385 16 74 32 139 36 143 15 17 88 -87 181
-259 75 -140 103 -183 128 -198 32 -18 33 -18 59 1 21 16 28 30 30 66 3 40 -8
71 -69 209 -39 90 -113 249 -163 353 -114 236 -143 264 -222 216z"/>
<path d="M2353 10159 c-69 -20 -89 -79 -108 -329 -4 -41 -8 -95 -10 -120 -2
-25 -7 -122 -11 -217 l-7 -172 26 -44 c23 -38 29 -43 55 -39 21 3 32 12 40 36
22 59 31 134 33 257 1 108 16 220 34 268 3 9 36 -49 76 -134 38 -81 94 -185
124 -229 234 -350 634 -608 1054 -681 299 -53 749 42 1150 240 409 203 732
490 934 829 62 105 63 206 3 281 l-25 30 -25 -25 c-14 -14 -48 -72 -77 -130
-69 -142 -126 -224 -232 -336 -111 -117 -214 -203 -357 -299 -256 -171 -690
-359 -925 -400 -119 -21 -326 -21 -451 0 -334 56 -687 259 -907 523 -115 138
-207 301 -207 368 0 8 36 -3 99 -31 195 -86 292 -97 373 -39 23 16 41 33 41
39 0 11 -385 238 -523 309 -95 49 -130 57 -177 45z"/>
<path d="M7720 10010 c-77 -9 -97 -16 -400 -158 -515 -240 -579 -276 -594
-338 -11 -43 12 -90 72 -145 49 -45 127 -87 547 -294 512 -253 592 -289 682
-308 63 -13 99 0 121 45 33 69 -12 109 -339 298 -177 103 -226 136 -214 143
16 8 281 11 308 2 6 -2 134 -6 282 -10 149 -3 297 -8 330 -10 33 -2 155 -7
270 -10 116 -3 262 -8 325 -10 63 -3 252 -10 420 -15 168 -5 370 -12 450 -15
272 -9 445 -15 605 -20 172 -6 321 -11 616 -21 129 -4 197 -3 221 5 35 12 96
66 86 77 -3 3 -44 16 -90 28 -58 16 -126 25 -223 30 -77 4 -174 9 -215 11
-160 10 -1037 55 -1340 70 -63 3 -144 7 -180 10 -36 2 -128 7 -205 10 -77 3
-165 8 -195 10 -30 2 -113 7 -185 10 -71 3 -166 8 -210 10 -44 3 -168 9 -275
15 -107 5 -233 12 -280 15 -47 2 -141 7 -210 10 -69 3 -152 8 -185 10 -33 2
-112 7 -175 10 -218 11 -385 27 -397 38 -14 15 119 99 350 221 144 76 272 147
285 159 40 37 55 129 20 126 -7 -1 -42 -5 -78 -9z"/>
<path d="M11355 8243 c-101 -17 -342 -76 -644 -155 -245 -65 -291 -85 -291
-132 0 -12 13 -37 29 -56 l29 -35 123 2 c146 3 259 16 388 45 78 18 94 19 102
7 5 -9 4 -18 -4 -25 -7 -7 -199 -175 -427 -374 -634 -553 -610 -529 -610 -613
0 -68 69 -87 148 -42 151 86 523 388 855 693 20 19 30 23 38 15 9 -9 4 -31
-19 -85 -42 -103 -112 -322 -112 -353 0 -30 38 -71 73 -80 53 -14 78 12 154
160 89 173 320 662 363 770 52 129 43 213 -28 248 -44 23 -83 25 -167 10z"/>
<path d="M7956 8128 c8 -35 22 -73 30 -86 10 -16 135 -83 367 -197 l352 -174
-1443 -3 c-794 -2 -1448 0 -1453 3 -13 8 90 96 253 217 134 99 223 179 266
239 l21 30 -63 7 c-35 3 -72 3 -82 -1 -32 -12 -463 -300 -594 -398 -69 -52
-135 -106 -146 -122 -60 -81 -52 -156 25 -225 36 -33 90 -61 222 -117 195 -83
425 -168 551 -205 168 -49 437 -65 521 -32 44 18 48 21 45 50 -3 29 -9 33 -88
65 -47 19 -188 60 -315 92 -126 31 -261 69 -299 83 -79 30 -206 96 -206 108 0
4 19 8 43 9 23 0 53 2 67 4 37 6 1675 6 1820 0 69 -2 211 -7 315 -10 235 -6
386 -16 402 -24 7 -4 -17 -26 -60 -55 -106 -73 -242 -182 -261 -210 -21 -33
-36 -101 -28 -130 l7 -23 87 27 c67 21 116 47 220 115 329 217 458 325 497
416 40 93 15 120 -199 220 -225 104 -869 389 -879 389 -5 0 -3 -28 5 -62z"/>
<path d="M3687 8046 c-83 -57 -808 -658 -882 -731 -89 -89 -148 -182 -166
-261 -23 -102 11 -171 106 -219 58 -29 65 -30 190 -29 132 1 230 13 620 78
196 33 221 33 212 1 -3 -9 -204 -140 -682 -444 -93 -60 -273 -175 -400 -256
-126 -81 -236 -150 -242 -152 -26 -10 -11 22 78 164 110 175 127 213 111 248
-33 72 -108 50 -199 -58 -243 -292 -371 -461 -412 -544 -65 -131 -73 -225 -23
-284 52 -62 108 -65 318 -14 351 84 710 207 932 319 70 35 186 131 177 146 -9
15 -140 31 -200 25 -33 -4 -116 -20 -185 -35 -69 -16 -156 -32 -195 -35 l-70
-7 140 94 c77 51 262 172 410 268 737 475 892 587 929 664 35 74 12 132 -69
171 -96 48 -134 45 -565 -34 -578 -106 -622 -112 -717 -105 l-82 7 47 61 c77
100 192 209 492 465 306 262 423 370 446 413 10 20 11 33 3 57 -20 56 -65 65
-122 27z"/>
<path d="M18341 7968 c-14 -7 -33 -27 -43 -45 -20 -33 -76 -279 -183 -806 -56
-277 -64 -330 -58 -377 8 -52 10 -55 39 -58 30 -3 30 -3 66 105 20 59 55 173
78 253 70 247 120 390 120 344 0 -5 4 -36 9 -69 5 -33 12 -100 15 -150 17
-252 54 -794 61 -890 3 -33 7 -100 10 -150 13 -205 66 -881 80 -1020 26 -257
144 -1026 164 -1062 16 -30 49 -56 65 -50 17 7 36 69 31 99 -4 21 -21 239 -30
398 -3 47 -7 117 -10 155 -3 39 -7 108 -10 155 -3 47 -8 119 -10 160 -3 41
-12 185 -20 320 -8 135 -17 268 -20 295 -2 28 -7 104 -10 170 -3 66 -8 140
-10 165 -3 25 -7 88 -10 140 -7 116 -43 686 -50 790 -25 352 -35 564 -29 610
l7 54 46 -50 c25 -28 97 -125 159 -217 117 -173 192 -263 276 -329 59 -47 66
-41 66 52 0 86 -18 123 -172 345 -390 565 -530 713 -627 663z"/>
<path d="M15205 7751 c-305 -129 -603 -307 -858 -510 -121 -96 -157 -132 -157
-157 0 -23 51 -74 74 -74 13 0 47 18 77 39 31 22 194 128 365 237 207 132 329
203 368 216 32 10 60 17 62 15 2 -1 -34 -50 -80 -107 -97 -124 -451 -658 -561
-849 -183 -316 -367 -739 -527 -1211 -195 -578 -264 -912 -224 -1090 10 -41
23 -78 29 -82 26 -17 46 -6 72 38 26 45 27 48 15 105 -22 104 -4 188 137 639
180 575 528 1368 767 1750 142 226 353 504 424 558 l32 25 0 -204 c1 -223 4
-261 27 -332 20 -65 55 -102 126 -138 67 -35 65 -42 23 79 -32 91 -49 226 -41
317 4 39 22 142 40 231 45 217 70 402 61 449 -4 21 -20 50 -36 67 -42 41 -99
38 -215 -11z"/>
<path d="M17000 7629 c-33 -13 -68 -47 -87 -83 -8 -16 -41 -109 -73 -205 -89
-269 -195 -503 -302 -666 -28 -41 -43 -77 -49 -118 -6 -33 -8 -61 -6 -64 7 -6
100 77 147 132 68 78 119 164 230 383 56 112 104 201 106 199 2 -2 9 -30 15
-61 53 -291 46 -588 -22 -866 -101 -410 -419 -895 -719 -1095 -148 -99 -270
-146 -448 -174 l-106 -16 52 -34 c98 -63 133 -61 362 24 213 78 318 145 499
320 278 269 447 563 546 950 60 237 70 333 70 686 l0 317 60 -45 c163 -120
322 -155 464 -102 25 10 21 13 -75 62 -132 68 -230 143 -390 298 -72 70 -144
134 -160 142 -42 21 -85 27 -114 16z"/>
<path d="M13070 7329 c-254 -60 -706 -181 -726 -194 -12 -8 -32 -35 -44 -60
-22 -45 -22 -49 -7 -81 36 -75 123 -84 335 -34 78 18 145 30 149 26 9 -8 -5
-33 -128 -222 -324 -502 -517 -943 -603 -1382 -39 -195 -48 -284 -49 -452 -1
-256 42 -462 133 -639 88 -171 99 -184 175 -215 37 -15 69 -26 70 -24 1 2 -13
55 -31 118 -149 511 -150 865 -3 1373 73 254 220 589 386 881 107 187 357 542
401 570 5 3 12 -28 16 -72 33 -379 62 -526 114 -574 30 -29 112 -73 112 -61 0
5 5 37 10 72 5 36 12 135 15 220 3 86 10 262 16 392 9 216 8 241 -8 290 -36
106 -108 121 -333 68z"/>
<path d="M5265 6391 c-62 -36 -488 -450 -539 -524 -41 -60 -55 -121 -36 -156
6 -13 33 -32 58 -44 46 -20 56 -20 512 -13 375 5 491 10 598 25 73 11 136 21
138 24 3 2 -10 18 -29 34 -33 29 -37 30 -378 71 -189 23 -370 45 -402 49 -32
3 -60 9 -62 13 -11 18 300 90 540 124 309 45 377 49 915 51 580 3 749 -5 1085
-55 326 -48 619 -127 912 -246 73 -30 144 -54 158 -54 50 0 95 70 81 124 -9
37 -47 59 -188 110 -404 146 -1019 263 -1548 293 -172 10 -545 10 -720 0 -337
-19 -711 -77 -1055 -164 -160 -41 -215 -51 -215 -41 0 23 36 74 106 151 41 45
85 105 99 132 25 53 41 125 28 125 -4 0 -30 -13 -58 -29z"/>
<path d="M10943 5965 c-51 -36 -61 -66 -178 -513 -50 -194 -65 -268 -65 -322
0 -38 4 -70 9 -70 24 0 98 106 162 233 75 148 109 202 120 190 8 -9 40 -263
66 -513 17 -175 24 -665 11 -795 -18 -175 -56 -395 -89 -518 l-11 -42 -31 40
c-65 85 -195 205 -249 230 -106 50 -232 23 -324 -70 -198 -198 -168 -522 59
-628 65 -31 174 -56 254 -58 34 -1 67 -5 74 -9 8 -6 1 -31 -29 -91 -88 -182
-195 -323 -479 -629 -289 -312 -441 -451 -737 -675 l-119 -90 58 -3 c66 -4 79
3 265 134 536 377 944 843 1215 1389 134 270 205 471 255 716 42 207 52 317
55 604 4 337 -6 475 -65 955 -16 124 -27 227 -24 229 2 2 34 -12 71 -30 86
-43 149 -46 207 -10 l39 25 -89 83 c-241 226 -357 290 -431 238z m-284 -2235
c87 -44 151 -159 152 -273 1 -71 -9 -103 -42 -134 -48 -44 -138 -56 -223 -31
-58 18 -131 91 -146 148 -24 91 4 192 72 257 58 56 121 67 187 33z"/>
<path d="M7085 5030 c-32 -17 -99 -59 -150 -94 -101 -71 -428 -332 -433 -347
-2 -5 10 -22 26 -39 25 -24 39 -30 74 -30 48 0 116 37 332 178 60 40 111 70
113 69 1 -2 -6 -63 -17 -136 -11 -73 -20 -160 -20 -192 0 -62 -18 -119 -48
-152 -43 -48 -255 -126 -409 -151 -91 -15 -200 -13 -307 4 -91 14 -272 14
-326 0 -156 -42 -233 -155 -247 -360 -7 -112 14 -198 106 -418 100 -241 106
-273 71 -341 -47 -93 -340 -233 -572 -275 -46 -8 -130 -18 -188 -21 -151 -9
-287 -31 -356 -56 -77 -29 -163 -113 -187 -183 -57 -166 14 -334 295 -705 135
-177 163 -232 161 -317 -1 -100 -16 -122 -276 -408 -95 -104 -172 -192 -172
-195 0 -11 70 -30 113 -30 86 -2 141 36 286 198 192 215 245 303 254 421 9
128 -31 237 -147 400 -187 261 -301 454 -301 508 0 28 17 62 39 79 33 26 121
44 284 58 92 8 203 22 245 31 283 57 613 228 702 362 90 135 80 274 -40 542
-69 155 -92 229 -98 311 -5 93 10 129 71 161 46 25 45 25 412 18 144 -3 185 0
267 18 273 59 477 169 531 285 27 56 47 162 47 252 l1 80 23 -26 c13 -15 51
-79 85 -144 81 -153 107 -191 146 -215 74 -45 167 -5 167 73 0 36 -141 362
-275 635 -89 181 -157 218 -282 152z"/>
<path d="M17535 4990 c-87 -9 -219 -62 -242 -96 -13 -21 -15 -43 -9 -132 9
-135 34 -309 49 -342 28 -58 88 -56 147 5 19 19 37 35 41 35 11 0 92 -143 143
-250 117 -248 178 -513 207 -890 15 -205 7 -655 -15 -815 -76 -550 -254 -1014
-553 -1443 -43 -62 -82 -120 -88 -127 -14 -21 17 -49 47 -42 90 23 256 213
373 428 467 857 572 1737 320 2698 -72 271 -166 465 -310 636 -23 28 -50 62
-60 78 l-17 27 131 63 c72 34 131 67 131 73 0 14 -49 59 -86 77 -39 20 -119
26 -209 17z"/>
<path d="M4788 4526 c-1 -2 -50 -7 -108 -10 -58 -4 -118 -9 -135 -12 -45 -6
-455 -43 -575 -50 -58 -4 -112 -8 -120 -10 -8 -1 -43 -3 -77 -3 -59 -1 -63 -3
-69 -27 -9 -34 2 -42 83 -67 61 -18 98 -20 343 -22 151 -1 295 -5 319 -10 l43
-7 -40 -24 c-138 -82 -637 -239 -952 -298 -239 -45 -386 -59 -640 -59 -501 -1
-1003 46 -1321 125 -138 34 -175 33 -223 -5 l-28 -23 137 -43 c283 -90 603
-159 920 -198 109 -14 218 -18 495 -18 316 0 373 3 520 23 389 54 724 138
1051 262 73 29 142 54 151 57 14 4 11 -10 -18 -80 -35 -87 -36 -97 -13 -173
l10 -32 67 15 c37 8 74 22 83 32 23 22 179 327 223 433 45 109 46 149 7 189
-16 16 -40 30 -53 30 -13 1 -35 3 -50 4 -14 2 -28 2 -30 1z"/>
<path d="M8696 4172 c-69 -38 -81 -59 -57 -102 25 -48 51 -64 185 -119 64 -26
117 -52 117 -57 -1 -10 -140 -96 -541 -334 -643 -381 -844 -543 -1045 -845
-130 -193 -204 -374 -212 -515 -7 -106 8 -179 54 -273 44 -88 157 -204 255
-260 l66 -38 -14 -51 c-68 -259 36 -610 244 -826 115 -119 226 -166 301 -128
18 10 34 23 37 31 3 8 -24 49 -63 97 -266 319 -362 490 -350 624 6 62 40 152
77 204 19 27 27 30 73 30 132 0 334 52 477 122 86 43 119 66 181 128 61 60 80
86 94 129 61 187 -106 403 -294 377 -62 -8 -153 -53 -259 -125 -117 -81 -216
-173 -318 -297 -47 -57 -89 -104 -94 -104 -17 0 -130 82 -164 120 -63 70 -80
114 -80 210 0 75 4 95 36 173 75 180 161 295 360 478 169 154 281 239 499 374
319 198 1041 605 1074 605 14 0 -13 -68 -87 -222 -63 -133 -81 -180 -85 -227
-6 -58 -5 -59 25 -75 17 -9 40 -16 51 -16 30 0 91 59 150 145 111 161 179 337
188 492 10 167 -5 179 -307 222 -227 33 -461 69 -500 76 -16 3 -43 -5 -74 -23z
m-347 -2038 c47 -40 44 -85 -12 -138 -73 -71 -214 -135 -339 -156 -58 -9 -64
-9 -80 10 -17 21 -15 23 65 94 250 221 299 246 366 190z"/>
<path d="M16460 3803 c-63 -32 -119 -141 -296 -571 -78 -188 -84 -209 -84
-273 0 -38 3 -69 6 -69 3 0 19 9 35 21 40 28 106 124 168 244 68 130 80 146
109 139 19 -5 22 -12 18 -38 -3 -17 -8 -87 -11 -156 -3 -69 -8 -156 -10 -195
-3 -38 -14 -209 -25 -380 -11 -170 -29 -427 -40 -570 -11 -143 -22 -312 -26
-375 -4 -63 -8 -117 -10 -121 -1 -3 -6 -82 -10 -177 -8 -206 3 -279 47 -317
24 -20 34 -22 60 -15 85 25 108 101 124 415 3 61 7 133 10 160 2 28 7 100 10
160 4 61 17 232 30 380 13 149 27 311 30 360 3 50 9 117 12 150 4 33 7 242 8
465 1 223 3 412 4 420 2 23 74 -53 171 -180 92 -121 156 -187 210 -215 30 -15
33 -15 46 2 28 37 38 89 24 136 -25 93 -417 568 -491 595 -55 21 -84 22 -119
5z"/>
<path d="M14715 3746 c-108 -67 -295 -400 -394 -706 -81 -250 -88 -348 -31
-420 l33 -42 33 119 c81 294 200 558 352 783 51 74 62 85 87 85 29 0 30 -1 56
-105 28 -110 30 -134 44 -675 3 -110 8 -258 10 -330 2 -71 7 -285 11 -475 6
-309 5 -347 -9 -358 -14 -12 -22 -1 -65 90 -55 114 -85 152 -137 174 -44 18
-41 19 -53 -13 -10 -32 -5 -49 134 -483 47 -146 96 -281 109 -301 13 -20 37
-42 54 -49 27 -11 37 -10 72 5 22 10 52 32 66 49 45 54 345 681 363 759 15 67
12 132 -8 157 -15 18 -24 21 -55 15 -50 -10 -89 -55 -166 -198 -34 -64 -67
-119 -71 -122 -23 -15 -29 80 -34 590 -5 573 -12 683 -61 1000 -43 282 -60
354 -93 393 -48 60 -76 76 -145 80 -52 2 -68 -1 -102 -22z"/>
<path d="M12887 3179 c-32 -19 -49 -78 -77 -279 -25 -170 -89 -499 -107 -546
-10 -28 30 0 75 52 40 45 53 74 101 240 11 40 29 82 39 95 l19 22 56 -170 c85
-257 108 -380 114 -606 7 -256 -18 -379 -113 -542 -59 -101 -210 -253 -309
-311 -240 -140 -505 -163 -746 -64 -333 138 -617 553 -734 1075 -61 274 -56
257 -73 243 -34 -29 -43 -73 -32 -170 49 -439 198 -776 460 -1038 217 -218
430 -312 710 -314 272 -1 508 94 704 283 232 225 327 494 313 886 -7 202 -33
326 -127 620 -38 121 -69 224 -67 230 2 5 55 -40 118 -101 134 -130 153 -144
196 -144 35 0 83 18 83 32 0 4 -45 67 -101 138 -211 270 -414 420 -502 369z"/>
<path d="M2474 2381 c-105 -64 -325 -392 -450 -672 -43 -96 -57 -139 -61 -191
-4 -47 -2 -68 5 -68 33 0 123 95 205 216 48 71 103 145 122 164 42 42 42 44
16 -135 -11 -71 -22 -179 -25 -240 -4 -60 -9 -135 -11 -165 -3 -30 -7 -156
-11 -280 -5 -192 -4 -231 9 -263 19 -44 57 -63 102 -50 47 14 54 40 55 212 2
308 21 587 60 888 21 153 15 152 84 12 77 -155 97 -183 160 -214 62 -31 74
-31 87 -2 8 19 -1 66 -46 243 -142 549 -148 564 -229 564 -23 0 -55 -9 -72
-19z"/>
</g>
</svg>
