<?xml version="1.0" standalone="no"?>
<!DOCTYPE svg PUBLIC "-//W3C//DTD SVG 20010904//EN"
 "http://www.w3.org/TR/2001/REC-SVG-20010904/DTD/svg10.dtd">
<svg version="1.0" xmlns="http://www.w3.org/2000/svg"
 width="169.000000pt" height="169.000000pt" viewBox="0 0 169.000000 169.000000"
 preserveAspectRatio="xMidYMid meet">
<metadata>
Created by potrace 1.14, written by Peter Selinger 2001-2017
</metadata>
<g transform="translate(0.000000,169.000000) scale(0.100000,-0.100000)"
fill="#000000" stroke="none">
<path d="M126 1631 c-3 -4 -6 -363 -6 -797 l-1 -789 668 0 668 0 3 30 3 30
-128 1 c-113 0 -137 3 -208 28 -275 94 -450 311 -500 618 l-6 38 273 2 c265 3
273 4 273 23 0 19 -8 20 -274 23 l-274 2 7 76 c18 199 130 408 280 521 86 64
131 88 221 119 69 23 97 27 208 28 l128 1 -3 25 -3 25 -662 3 c-370 1 -664 -2
-667 -7z m897 -61 c-237 -107 -413 -359 -446 -637 l-11 -93 -198 0 -198 0 0
375 0 375 448 0 447 0 -42 -20z m-448 -817 c44 -288 195 -505 434 -625 l76
-38 -458 0 -457 0 0 350 0 350 200 0 199 0 6 -37z"/>
</g>
</svg>
